<?xml version="1.0" encoding="UTF-8"?><svg xmlns:svg="http://www.w3.org/2000/svg" xmlns="http://www.w3.org/2000/svg" xmlns:xlink="http://www.w3.org/1999/xlink" version="1.0" width="200" height="800" ><line x1="50" y1="30" x2="170" y2="30" stroke="black" stroke-width="3" /><text x="20" y="55" font-family="JetBrains Mono" >0</text><line x1="50" y1="70" x2="170" y2="70" stroke="black" stroke-width="3" /><text x="20" y="95" font-family="JetBrains Mono" >1</text><line x1="50" y1="110" x2="170" y2="110" stroke="black" stroke-width="3" /><text x="20" y="135" font-family="JetBrains Mono" >2</text><line x1="50" y1="150" x2="170" y2="150" stroke="black" stroke-width="3" /><text x="20" y="175" font-family="JetBrains Mono" >3</text><line x1="50" y1="190" x2="170" y2="190" stroke="black" stroke-width="3" /><text x="20" y="215" font-family="JetBrains Mono" >4</text><line x1="50" y1="230" x2="170" y2="230" stroke="black" stroke-width="3" /><text x="20" y="255" font-family="JetBrains Mono" >5</text><line x1="50" y1="270" x2="170" y2="270" stroke="black" stroke-width="3" /><text x="20" y="295" font-family="JetBrains Mono" >6</text><line x1="50" y1="310" x2="170" y2="310" stroke="black" stroke-width="3" /><text x="20" y="335" font-family="JetBrains Mono" >7</text><line x1="50" y1="350" x2="170" y2="350" stroke="black" stroke-width="3" /><text x="20" y="375" font-family="JetBrains Mono" >8</text><line x1="50" y1="390" x2="170" y2="390" stroke="black" stroke-width="3" /><text x="20" y="415" font-family="JetBrains Mono" >9</text><line x1="50" y1="430" x2="170" y2="430" stroke="black" stroke-width="3" /><text x="20" y="455" font-family="JetBrains Mono" >10</text><line x1="50" y1="470" x2="170" y2="470" stroke="black" stroke-width="3" /><text x="20" y="495" font-family="JetBrains Mono" >11</text><line x1="50" y1="510" x2="170" y2="510" stroke="black" stroke-width="3" /><text x="20" y="535" font-family="JetBrains Mono" >12</text><line x1="50" y1="550" x2="170" y2="550" stroke="black" stroke-width="3" /><text x="20" y="575" font-family="JetBrains Mono" ></text><text x="55" y="20" font-family="JetBrains Mono" >6</text><line x1="60" y1="25" x2="60" y2="592" stroke="black" /><text x="75" y="20" font-family="JetBrains Mono" >5</text><line x1="80" y1="25" x2="80" y2="592" stroke="black" /><text x="95" y="20" font-family="JetBrains Mono" >4</text><line x1="100" y1="25" x2="100" y2="592" stroke="black" /><text x="115" y="20" font-family="JetBrains Mono" >3</text><line x1="120" y1="25" x2="120" y2="592" stroke="black" /><text x="135" y="20" font-family="JetBrains Mono" >2</text><line x1="140" y1="25" x2="140" y2="592" stroke="black" /><text x="155" y="20" font-family="JetBrains Mono" >1</text><line x1="160" y1="25" x2="160" y2="592" stroke="black" /><circle cx="60" cy="59" r="9" stroke="black" fill="white" stroke-width="1" /><text x="55" y="65" stroke="black" fill="black" font-family="JetBrains Mono" >5</text><circle cx="80" cy="59" r="9" stroke="black" fill="red" stroke-width="1" /><text x="75" y="65" stroke="white" fill="white" font-family="JetBrains Mono" ></text><circle cx="100" cy="59" r="9" stroke="black" fill="white" stroke-width="1" /><text x="95" y="65" stroke="black" fill="black" font-family="JetBrains Mono" >4</text><circle cx="140" cy="59" r="9" stroke="black" fill="white" stroke-width="1" /><text x="135" y="65" stroke="black" fill="black" font-family="JetBrains Mono" >2</text><circle cx="160" cy="59" r="9" stroke="black" fill="white" stroke-width="1" /><text x="155" y="65" stroke="black" fill="black" font-family="JetBrains Mono" >5</text><circle cx="120" cy="99" r="9" stroke="black" fill="white" stroke-width="1" /><text x="115" y="105" stroke="black" fill="black" font-family="JetBrains Mono" >7</text><circle cx="60" cy="139" r="9" stroke="black" fill="white" stroke-width="1" /><text x="55" y="145" stroke="black" fill="black" font-family="JetBrains Mono" >6</text><circle cx="80" cy="139" r="9" stroke="black" fill="white" stroke-width="1" /><text x="75" y="145" stroke="black" fill="black" font-family="JetBrains Mono" >2</text><circle cx="100" cy="139" r="9" stroke="black" fill="white" stroke-width="1" /><text x="95" y="145" stroke="black" fill="black" font-family="JetBrains Mono" >5</text><circle cx="120" cy="139" r="9" stroke="black" fill="red" stroke-width="1" /><text x="115" y="145" stroke="white" fill="white" font-family="JetBrains Mono" ></text><circle cx="140" cy="139" r="9" stroke="black" fill="white" stroke-width="1" /><text x="135" y="145" stroke="black" fill="black" font-family="JetBrains Mono" >3</text><circle cx="160" cy="139" r="9" stroke="black" fill="white" stroke-width="1" /><text x="155" y="145" stroke="black" fill="black" font-family="JetBrains Mono" >6</text><circle cx="140" cy="179" r="9" stroke="black" fill="white" stroke-width="1" /><text x="135" y="185" stroke="black" fill="black" font-family="JetBrains Mono" >4</text><circle cx="60" cy="219" r="9" stroke="black" fill="white" stroke-width="1" /><text x="55" y="225" stroke="black" fill="black" font-family="JetBrains Mono" >7</text><circle cx="80" cy="219" r="9" stroke="black" fill="white" stroke-width="1" /><text x="75" y="225" stroke="black" fill="black" font-family="JetBrains Mono" >3</text><circle cx="100" cy="219" r="9" stroke="black" fill="white" stroke-width="1" /><text x="95" y="225" stroke="black" fill="black" font-family="JetBrains Mono" >6</text><circle cx="120" cy="219" r="9" stroke="black" fill="white" stroke-width="1" /><text x="115" y="225" stroke="black" fill="black" font-family="JetBrains Mono" >2</text><circle cx="160" cy="219" r="9" stroke="black" fill="white" stroke-width="1" /><text x="155" y="225" stroke="black" fill="black" font-family="JetBrains Mono" >7</text><circle cx="60" cy="259" r="9" stroke="black" fill="red" stroke-width="1" /><text x="55" y="265" stroke="white" fill="white" font-family="JetBrains Mono" ></text><circle cx="80" cy="259" r="9" stroke="black" fill="white" stroke-width="1" /><text x="75" y="265" stroke="black" fill="black" font-family="JetBrains Mono" >4</text><circle cx="140" cy="259" r="9" stroke="black" fill="white" stroke-width="1" /><text x="135" y="265" stroke="black" fill="black" font-family="JetBrains Mono" >5</text><circle cx="160" cy="259" r="9" stroke="black" fill="red" stroke-width="1" /><text x="155" y="265" stroke="white" fill="white" font-family="JetBrains Mono" ></text><circle cx="100" cy="299" r="9" stroke="black" fill="white" stroke-width="1" /><text x="95" y="305" stroke="black" fill="black" font-family="JetBrains Mono" >7</text><circle cx="120" cy="299" r="9" stroke="black" fill="white" stroke-width="1" /><text x="115" y="305" stroke="black" fill="black" font-family="JetBrains Mono" >3</text><circle cx="60" cy="339" r="9" stroke="black" fill="white" stroke-width="1" /><text x="55" y="345" stroke="black" fill="black" font-family="JetBrains Mono" >2</text><circle cx="80" cy="339" r="9" stroke="black" fill="white" stroke-width="1" /><text x="75" y="345" stroke="black" fill="black" font-family="JetBrains Mono" >5</text><circle cx="100" cy="339" r="9" stroke="black" fill="red" stroke-width="1" /><text x="95" y="345" stroke="white" fill="white" font-family="JetBrains Mono" ></text><circle cx="120" cy="339" r="9" stroke="black" fill="white" stroke-width="1" /><text x="115" y="345" stroke="black" fill="black" font-family="JetBrains Mono" >4</text><circle cx="140" cy="339" r="9" stroke="black" fill="white" stroke-width="1" /><text x="135" y="345" stroke="black" fill="black" font-family="JetBrains Mono" >6</text><circle cx="160" cy="339" r="9" stroke="black" fill="white" stroke-width="1" /><text x="155" y="345" stroke="black" fill="black" font-family="JetBrains Mono" >2</text><circle cx="60" cy="419" r="9" stroke="black" fill="white" stroke-width="1" /><text x="55" y="425" stroke="black" fill="black" font-family="JetBrains Mono" >3</text><circle cx="80" cy="419" r="9" stroke="black" fill="white" stroke-width="1" /><text x="75" y="425" stroke="black" fill="black" font-family="JetBrains Mono" >6</text><circle cx="100" cy="419" r="9" stroke="black" fill="white" stroke-width="1" /><text x="95" y="425" stroke="black" fill="black" font-family="JetBrains Mono" >2</text><circle cx="120" cy="419" r="9" stroke="black" fill="white" stroke-width="1" /><text x="115" y="425" stroke="black" fill="black" font-family="JetBrains Mono" >5</text><circle cx="140" cy="419" r="9" stroke="black" fill="white" stroke-width="1" /><text x="135" y="425" stroke="black" fill="black" font-family="JetBrains Mono" >7</text><circle cx="160" cy="419" r="9" stroke="black" fill="white" stroke-width="1" /><text x="155" y="425" stroke="black" fill="black" font-family="JetBrains Mono" >3</text><circle cx="60" cy="459" r="9" stroke="black" fill="white" stroke-width="1" /><text x="55" y="465" stroke="black" fill="black" font-family="JetBrains Mono" >4</text><circle cx="140" cy="459" r="9" stroke="black" fill="red" stroke-width="1" /><text x="135" y="465" stroke="white" fill="white" font-family="JetBrains Mono" ></text><circle cx="160" cy="459" r="9" stroke="black" fill="white" stroke-width="1" /><text x="155" y="465" stroke="black" fill="black" font-family="JetBrains Mono" >4</text><circle cx="80" cy="499" r="9" stroke="black" fill="white" stroke-width="1" /><text x="75" y="505" stroke="black" fill="black" font-family="JetBrains Mono" >7</text><circle cx="100" cy="499" r="9" stroke="black" fill="white" stroke-width="1" /><text x="95" y="505" stroke="black" fill="black" font-family="JetBrains Mono" >3</text><circle cx="120" cy="499" r="9" stroke="black" fill="white" stroke-width="1" /><text x="115" y="505" stroke="black" fill="black" font-family="JetBrains Mono" >6</text><circle cx="60" cy="539" r="9" stroke="black" fill="white" stroke-width="1" /><text x="55" y="545" stroke="black" fill="black" font-family="JetBrains Mono" >5</text><circle cx="80" cy="539" r="9" stroke="black" fill="red" stroke-width="1" /><text x="75" y="545" stroke="white" fill="white" font-family="JetBrains Mono" ></text><circle cx="100" cy="539" r="9" stroke="black" fill="white" stroke-width="1" /><text x="95" y="545" stroke="black" fill="black" font-family="JetBrains Mono" >4</text><circle cx="140" cy="539" r="9" stroke="black" fill="white" stroke-width="1" /><text x="135" y="545" stroke="black" fill="black" font-family="JetBrains Mono" >2</text><circle cx="160" cy="539" r="9" stroke="black" fill="white" stroke-width="1" /><text x="155" y="545" stroke="black" fill="black" font-family="JetBrains Mono" >5</text><rect x="55" y="33" height="13" width="22" fill="white" /><text x="55" y="44" stroke="black" font-size="0.6em" font-family="JetBrains Mono" >E1</text><rect x="75" y="33" height="13" width="22" fill="white" /><text x="75" y="44" stroke="black" font-size="0.6em" font-family="JetBrains Mono" >A1</text><rect x="95" y="33" height="13" width="22" fill="white" /><text x="95" y="44" stroke="black" font-size="0.6em" font-family="JetBrains Mono" >D2</text><rect x="135" y="33" height="13" width="22" fill="white" /><text x="135" y="44" stroke="black" font-size="0.6em" font-family="JetBrains Mono" >B2</text><rect x="155" y="33" height="13" width="22" fill="white" /><text x="155" y="44" stroke="black" font-size="0.6em" font-family="JetBrains Mono" >E3</text><rect x="112" y="73" height="13" width="22" fill="white" /><text x="112" y="84" stroke="black" font-size="0.6em" font-family="JetBrains Mono" >G#2</text><rect x="52" y="113" height="13" width="22" fill="white" /><text x="52" y="124" stroke="black" font-size="0.6em" font-family="JetBrains Mono" >F#1</text><rect x="75" y="113" height="13" width="22" fill="white" /><text x="75" y="124" stroke="black" font-size="0.6em" font-family="JetBrains Mono" >B1</text><rect x="95" y="113" height="13" width="22" fill="white" /><text x="95" y="124" stroke="black" font-size="0.6em" font-family="JetBrains Mono" >E2</text><rect x="115" y="113" height="13" width="22" fill="white" /><text x="115" y="124" stroke="black" font-size="0.6em" font-family="JetBrains Mono" >A2</text><rect x="132" y="113" height="13" width="22" fill="white" /><text x="132" y="124" stroke="black" font-size="0.6em" font-family="JetBrains Mono" >C#3</text><rect x="152" y="113" height="13" width="22" fill="white" /><text x="152" y="124" stroke="black" font-size="0.6em" font-family="JetBrains Mono" >F#3</text><rect x="135" y="153" height="13" width="22" fill="white" /><text x="135" y="164" stroke="black" font-size="0.6em" font-family="JetBrains Mono" >D3</text><rect x="52" y="193" height="13" width="22" fill="white" /><text x="52" y="204" stroke="black" font-size="0.6em" font-family="JetBrains Mono" >G#1</text><rect x="72" y="193" height="13" width="22" fill="white" /><text x="72" y="204" stroke="black" font-size="0.6em" font-family="JetBrains Mono" >C#2</text><rect x="92" y="193" height="13" width="22" fill="white" /><text x="92" y="204" stroke="black" font-size="0.6em" font-family="JetBrains Mono" >F#2</text><rect x="115" y="193" height="13" width="22" fill="white" /><text x="115" y="204" stroke="black" font-size="0.6em" font-family="JetBrains Mono" >B2</text><rect x="152" y="193" height="13" width="22" fill="white" /><text x="152" y="204" stroke="black" font-size="0.6em" font-family="JetBrains Mono" >G#3</text><rect x="55" y="233" height="13" width="22" fill="white" /><text x="55" y="244" stroke="black" font-size="0.6em" font-family="JetBrains Mono" >A1</text><rect x="75" y="233" height="13" width="22" fill="white" /><text x="75" y="244" stroke="black" font-size="0.6em" font-family="JetBrains Mono" >D2</text><rect x="135" y="233" height="13" width="22" fill="white" /><text x="135" y="244" stroke="black" font-size="0.6em" font-family="JetBrains Mono" >E3</text><rect x="155" y="233" height="13" width="22" fill="white" /><text x="155" y="244" stroke="black" font-size="0.6em" font-family="JetBrains Mono" >A3</text><rect x="92" y="273" height="13" width="22" fill="white" /><text x="92" y="284" stroke="black" font-size="0.6em" font-family="JetBrains Mono" >G#2</text><rect x="112" y="273" height="13" width="22" fill="white" /><text x="112" y="284" stroke="black" font-size="0.6em" font-family="JetBrains Mono" >C#3</text><rect x="55" y="313" height="13" width="22" fill="white" /><text x="55" y="324" stroke="black" font-size="0.6em" font-family="JetBrains Mono" >B1</text><rect x="75" y="313" height="13" width="22" fill="white" /><text x="75" y="324" stroke="black" font-size="0.6em" font-family="JetBrains Mono" >E2</text><rect x="95" y="313" height="13" width="22" fill="white" /><text x="95" y="324" stroke="black" font-size="0.6em" font-family="JetBrains Mono" >A2</text><rect x="115" y="313" height="13" width="22" fill="white" /><text x="115" y="324" stroke="black" font-size="0.6em" font-family="JetBrains Mono" >D3</text><rect x="132" y="313" height="13" width="22" fill="white" /><text x="132" y="324" stroke="black" font-size="0.6em" font-family="JetBrains Mono" >F#3</text><rect x="155" y="313" height="13" width="22" fill="white" /><text x="155" y="324" stroke="black" font-size="0.6em" font-family="JetBrains Mono" >B3</text><rect x="52" y="393" height="13" width="22" fill="white" /><text x="52" y="404" stroke="black" font-size="0.6em" font-family="JetBrains Mono" >C#2</text><rect x="72" y="393" height="13" width="22" fill="white" /><text x="72" y="404" stroke="black" font-size="0.6em" font-family="JetBrains Mono" >F#2</text><rect x="95" y="393" height="13" width="22" fill="white" /><text x="95" y="404" stroke="black" font-size="0.6em" font-family="JetBrains Mono" >B2</text><rect x="115" y="393" height="13" width="22" fill="white" /><text x="115" y="404" stroke="black" font-size="0.6em" font-family="JetBrains Mono" >E3</text><rect x="132" y="393" height="13" width="22" fill="white" /><text x="132" y="404" stroke="black" font-size="0.6em" font-family="JetBrains Mono" >G#3</text><rect x="152" y="393" height="13" width="22" fill="white" /><text x="152" y="404" stroke="black" font-size="0.6em" font-family="JetBrains Mono" >C#4</text><rect x="55" y="433" height="13" width="22" fill="white" /><text x="55" y="444" stroke="black" font-size="0.6em" font-family="JetBrains Mono" >D2</text><rect x="135" y="433" height="13" width="22" fill="white" /><text x="135" y="444" stroke="black" font-size="0.6em" font-family="JetBrains Mono" >A3</text><rect x="155" y="433" height="13" width="22" fill="white" /><text x="155" y="444" stroke="black" font-size="0.6em" font-family="JetBrains Mono" >D4</text><rect x="72" y="473" height="13" width="22" fill="white" /><text x="72" y="484" stroke="black" font-size="0.6em" font-family="JetBrains Mono" >G#2</text><rect x="92" y="473" height="13" width="22" fill="white" /><text x="92" y="484" stroke="black" font-size="0.6em" font-family="JetBrains Mono" >C#3</text><rect x="112" y="473" height="13" width="22" fill="white" /><text x="112" y="484" stroke="black" font-size="0.6em" font-family="JetBrains Mono" >F#3</text><rect x="55" y="513" height="13" width="22" fill="white" /><text x="55" y="524" stroke="black" font-size="0.6em" font-family="JetBrains Mono" >E2</text><rect x="75" y="513" height="13" width="22" fill="white" /><text x="75" y="524" stroke="black" font-size="0.6em" font-family="JetBrains Mono" >A2</text><rect x="95" y="513" height="13" width="22" fill="white" /><text x="95" y="524" stroke="black" font-size="0.6em" font-family="JetBrains Mono" >D3</text><rect x="135" y="513" height="13" width="22" fill="white" /><text x="135" y="524" stroke="black" font-size="0.6em" font-family="JetBrains Mono" >B3</text><rect x="155" y="513" height="13" width="22" fill="white" /><text x="155" y="524" stroke="black" font-size="0.6em" font-family="JetBrains Mono" >E4</text></svg>