<?xml version="1.0" encoding="UTF-8"?><svg xmlns:svg="http://www.w3.org/2000/svg" xmlns="http://www.w3.org/2000/svg" xmlns:xlink="http://www.w3.org/1999/xlink" version="1.0" width="200" height="200" ><line x1="50" y1="30" x2="170" y2="30" stroke="black" stroke-width="3" /><text x="20" y="55" font-family="JetBrains Mono" >5</text><line x1="50" y1="70" x2="170" y2="70" stroke="black" stroke-width="3" /><text x="20" y="95" font-family="JetBrains Mono" >6</text><line x1="50" y1="110" x2="170" y2="110" stroke="black" stroke-width="3" /><text x="20" y="135" font-family="JetBrains Mono" >7</text><line x1="50" y1="150" x2="170" y2="150" stroke="black" stroke-width="3" /><text x="20" y="175" font-family="JetBrains Mono" >8</text><line x1="50" y1="190" x2="170" y2="190" stroke="black" stroke-width="3" /><text x="20" y="215" font-family="JetBrains Mono" ></text><text x="55" y="20" font-family="JetBrains Mono" >6</text><line x1="60" y1="25" x2="60" y2="195" stroke="black" /><text x="75" y="20" font-family="JetBrains Mono" >5</text><line x1="80" y1="25" x2="80" y2="195" stroke="black" /><text x="95" y="20" font-family="JetBrains Mono" >4</text><line x1="100" y1="25" x2="100" y2="195" stroke="black" /><text x="115" y="20" font-family="JetBrains Mono" >3</text><line x1="120" y1="25" x2="120" y2="195" stroke="black" /><text x="135" y="20" font-family="JetBrains Mono" >2</text><line x1="140" y1="25" x2="140" y2="195" stroke="black" /><text x="155" y="20" font-family="JetBrains Mono" >1</text><line x1="160" y1="25" x2="160" y2="195" stroke="black" /><circle cx="60" cy="59" r="9" stroke="black" fill="red" stroke-width="1" /><text x="55" y="65" stroke="white" fill="white" font-family="JetBrains Mono" >1</text><circle cx="80" cy="59" r="9" stroke="black" fill="white" stroke-width="1" /><text x="75" y="65" stroke="black" fill="black" font-family="JetBrains Mono" >1</text><circle cx="100" cy="59" r="9" stroke="black" fill="white" stroke-width="1" /><text x="95" y="65" stroke="black" fill="black" font-family="JetBrains Mono" >1</text><circle cx="120" cy="59" r="9" stroke="black" fill="white" stroke-width="1" /><text x="115" y="65" stroke="black" fill="black" font-family="JetBrains Mono" >1</text><circle cx="140" cy="59" r="9" stroke="black" fill="white" stroke-width="1" /><text x="135" y="65" stroke="black" fill="black" font-family="JetBrains Mono" >1</text><circle cx="160" cy="59" r="9" stroke="black" fill="red" stroke-width="1" /><text x="155" y="65" stroke="white" fill="white" font-family="JetBrains Mono" >1</text><circle cx="80" cy="139" r="9" stroke="black" fill="white" stroke-width="1" /><text x="75" y="145" stroke="black" fill="black" font-family="JetBrains Mono" >3</text><circle cx="100" cy="139" r="9" stroke="black" fill="red" stroke-width="1" /><text x="95" y="145" stroke="white" fill="white" font-family="JetBrains Mono" >3</text><circle cx="120" cy="139" r="9" stroke="black" fill="white" stroke-width="1" /><text x="115" y="145" stroke="black" fill="black" font-family="JetBrains Mono" >3</text><circle cx="60" cy="179" r="9" stroke="black" fill="white" stroke-width="1" /><text x="55" y="185" stroke="black" fill="black" font-family="JetBrains Mono" >4</text><circle cx="140" cy="179" r="9" stroke="black" fill="white" stroke-width="1" /><text x="135" y="185" stroke="black" fill="black" font-family="JetBrains Mono" >4</text><circle cx="160" cy="179" r="9" stroke="black" fill="white" stroke-width="1" /><text x="155" y="185" stroke="black" fill="black" font-family="JetBrains Mono" >4</text><rect x="55" y="33" height="13" width="22" fill="white" /><text x="55" y="44" stroke="black" font-size="0.6em" font-family="JetBrains Mono" >A1</text><rect x="75" y="33" height="13" width="22" fill="white" /><text x="75" y="44" stroke="black" font-size="0.6em" font-family="JetBrains Mono" >D2</text><rect x="95" y="33" height="13" width="22" fill="white" /><text x="95" y="44" stroke="black" font-size="0.6em" font-family="JetBrains Mono" >G2</text><rect x="115" y="33" height="13" width="22" fill="white" /><text x="115" y="44" stroke="black" font-size="0.6em" font-family="JetBrains Mono" >C3</text><rect x="135" y="33" height="13" width="22" fill="white" /><text x="135" y="44" stroke="black" font-size="0.6em" font-family="JetBrains Mono" >E3</text><rect x="155" y="33" height="13" width="22" fill="white" /><text x="155" y="44" stroke="black" font-size="0.6em" font-family="JetBrains Mono" >A3</text><rect x="75" y="113" height="13" width="22" fill="white" /><text x="75" y="124" stroke="black" font-size="0.6em" font-family="JetBrains Mono" >E2</text><rect x="95" y="113" height="13" width="22" fill="white" /><text x="95" y="124" stroke="black" font-size="0.6em" font-family="JetBrains Mono" >A2</text><rect x="115" y="113" height="13" width="22" fill="white" /><text x="115" y="124" stroke="black" font-size="0.6em" font-family="JetBrains Mono" >D3</text><rect x="55" y="153" height="13" width="22" fill="white" /><text x="55" y="164" stroke="black" font-size="0.6em" font-family="JetBrains Mono" >C2</text><rect x="135" y="153" height="13" width="22" fill="white" /><text x="135" y="164" stroke="black" font-size="0.6em" font-family="JetBrains Mono" >G3</text><rect x="155" y="153" height="13" width="22" fill="white" /><text x="155" y="164" stroke="black" font-size="0.6em" font-family="JetBrains Mono" >C4</text></svg>