<?xml version="1.0" encoding="UTF-8"?><svg xmlns:svg="http://www.w3.org/2000/svg" xmlns="http://www.w3.org/2000/svg" xmlns:xlink="http://www.w3.org/1999/xlink" version="1.0" width="200" height="200" ><line x1="35" y1="25" x2="155" y2="25" stroke="black" stroke-width="3" /><text x="5" y="50" font-family="JetBrains Mono" >5</text><line x1="35" y1="65" x2="155" y2="65" stroke="black" stroke-width="3" /><text x="5" y="90" font-family="JetBrains Mono" >6</text><line x1="35" y1="105" x2="155" y2="105" stroke="black" stroke-width="3" /><text x="5" y="130" font-family="JetBrains Mono" >7</text><line x1="35" y1="145" x2="155" y2="145" stroke="black" stroke-width="3" /><text x="5" y="170" font-family="JetBrains Mono" >8</text><line x1="35" y1="185" x2="155" y2="185" stroke="black" stroke-width="3" /><text x="5" y="210" font-family="JetBrains Mono" ></text><text x="40" y="15" font-family="JetBrains Mono" >6</text><line x1="45" y1="20" x2="45" y2="190" stroke="black" /><text x="60" y="15" font-family="JetBrains Mono" >5</text><line x1="65" y1="20" x2="65" y2="190" stroke="black" /><text x="80" y="15" font-family="JetBrains Mono" >4</text><line x1="85" y1="20" x2="85" y2="190" stroke="black" /><text x="100" y="15" font-family="JetBrains Mono" >3</text><line x1="105" y1="20" x2="105" y2="190" stroke="black" /><text x="120" y="15" font-family="JetBrains Mono" >2</text><line x1="125" y1="20" x2="125" y2="190" stroke="black" /><text x="140" y="15" font-family="JetBrains Mono" >1</text><line x1="145" y1="20" x2="145" y2="190" stroke="black" /><circle cx="45" cy="54" r="9" stroke="black" fill="red" stroke-width="1" /><text x="40" y="60" stroke="white" fill="white" font-family="JetBrains Mono" >1</text><circle cx="65" cy="54" r="9" stroke="black" fill="white" stroke-width="1" /><text x="60" y="60" stroke="black" fill="black" font-family="JetBrains Mono" >1</text><circle cx="85" cy="54" r="9" stroke="black" fill="white" stroke-width="1" /><text x="80" y="60" stroke="black" fill="black" font-family="JetBrains Mono" >1</text><circle cx="105" cy="54" r="9" stroke="black" fill="white" stroke-width="1" /><text x="100" y="60" stroke="black" fill="black" font-family="JetBrains Mono" >1</text><circle cx="125" cy="54" r="9" stroke="black" fill="white" stroke-width="1" /><text x="120" y="60" stroke="black" fill="black" font-family="JetBrains Mono" >1</text><circle cx="145" cy="54" r="9" stroke="black" fill="red" stroke-width="1" /><text x="140" y="60" stroke="white" fill="white" font-family="JetBrains Mono" >1</text><circle cx="65" cy="134" r="9" stroke="black" fill="white" stroke-width="1" /><text x="60" y="140" stroke="black" fill="black" font-family="JetBrains Mono" >3</text><circle cx="85" cy="134" r="9" stroke="black" fill="red" stroke-width="1" /><text x="80" y="140" stroke="white" fill="white" font-family="JetBrains Mono" >3</text><circle cx="105" cy="134" r="9" stroke="black" fill="white" stroke-width="1" /><text x="100" y="140" stroke="black" fill="black" font-family="JetBrains Mono" >3</text><circle cx="45" cy="174" r="9" stroke="black" fill="white" stroke-width="1" /><text x="40" y="180" stroke="black" fill="black" font-family="JetBrains Mono" >4</text><circle cx="125" cy="174" r="9" stroke="black" fill="white" stroke-width="1" /><text x="120" y="180" stroke="black" fill="black" font-family="JetBrains Mono" >4</text><circle cx="145" cy="174" r="9" stroke="black" fill="white" stroke-width="1" /><text x="140" y="180" stroke="black" fill="black" font-family="JetBrains Mono" >4</text><rect x="37" y="28" height="13" width="22" fill="white" /><text x="37" y="39" stroke="black" font-size="0.6em" font-family="JetBrains Mono" >A1</text><rect x="57" y="28" height="13" width="22" fill="white" /><text x="57" y="39" stroke="black" font-size="0.6em" font-family="JetBrains Mono" >D2</text><rect x="77" y="28" height="13" width="22" fill="white" /><text x="77" y="39" stroke="black" font-size="0.6em" font-family="JetBrains Mono" >G2</text><rect x="97" y="28" height="13" width="22" fill="white" /><text x="97" y="39" stroke="black" font-size="0.6em" font-family="JetBrains Mono" >C3</text><rect x="117" y="28" height="13" width="22" fill="white" /><text x="117" y="39" stroke="black" font-size="0.6em" font-family="JetBrains Mono" >E3</text><rect x="137" y="28" height="13" width="22" fill="white" /><text x="137" y="39" stroke="black" font-size="0.6em" font-family="JetBrains Mono" >A3</text><rect x="57" y="108" height="13" width="22" fill="white" /><text x="57" y="119" stroke="black" font-size="0.6em" font-family="JetBrains Mono" >E2</text><rect x="77" y="108" height="13" width="22" fill="white" /><text x="77" y="119" stroke="black" font-size="0.6em" font-family="JetBrains Mono" >A2</text><rect x="97" y="108" height="13" width="22" fill="white" /><text x="97" y="119" stroke="black" font-size="0.6em" font-family="JetBrains Mono" >D3</text><rect x="37" y="148" height="13" width="22" fill="white" /><text x="37" y="159" stroke="black" font-size="0.6em" font-family="JetBrains Mono" >C2</text><rect x="117" y="148" height="13" width="22" fill="white" /><text x="117" y="159" stroke="black" font-size="0.6em" font-family="JetBrains Mono" >G3</text><rect x="137" y="148" height="13" width="22" fill="white" /><text x="137" y="159" stroke="black" font-size="0.6em" font-family="JetBrains Mono" >C4</text></svg>